<?xml version="1.0" standalone="no"?>
<!DOCTYPE svg PUBLIC "-//W3C//DTD SVG 20010904//EN"
 "http://www.w3.org/TR/2001/REC-SVG-20010904/DTD/svg10.dtd">
<svg version="1.0" xmlns="http://www.w3.org/2000/svg"
 width="2000.000000pt" height="2000.000000pt" viewBox="0 0 2000.000000 2000.000000"
 preserveAspectRatio="xMidYMid meet">
<metadata>
Created by potrace 1.14, written by Peter Selinger 2001-2017
</metadata>
<g transform="translate(0.000000,2000.000000) scale(0.100000,-0.100000)"
fill="#000000" stroke="none">
<path d="M9897 17064 c-1 -1 -60 -5 -132 -8 -128 -7 -156 -9 -265 -21 -73 -8
-109 -13 -210 -31 -128 -21 -142 -24 -185 -36 -22 -5 -51 -12 -65 -15 -110
-20 -415 -119 -561 -183 -288 -127 -489 -260 -674 -445 -156 -156 -249 -298
-303 -461 -38 -115 -56 -287 -40 -379 3 -22 9 -60 13 -84 8 -52 48 -167 82
-234 217 -431 762 -782 1483 -956 94 -23 270 -57 340 -65 69 -9 132 -17 160
-22 65 -10 265 -19 455 -19 194 0 450 11 464 19 3 2 38 7 76 11 58 5 207 30
360 60 138 27 448 124 595 186 108 46 316 155 404 212 293 192 491 416 589
667 28 73 33 93 50 200 75 473 -263 945 -898 1254 -82 40 -177 83 -210 96 -33
12 -69 26 -80 30 -44 18 -245 80 -306 94 -8 2 -44 11 -80 20 -75 18 -214 47
-246 51 -13 2 -40 6 -60 9 -42 7 -68 11 -158 21 -33 3 -73 8 -90 10 -66 8
-502 24 -508 19z"/>
<path d="M5839 15116 c-2 -2 -24 -7 -49 -10 -231 -31 -499 -142 -753 -310
-104 -69 -229 -161 -273 -201 -6 -5 -43 -38 -82 -73 -436 -387 -773 -874
-1052 -1517 -49 -115 -153 -437 -175 -543 -2 -9 -10 -48 -19 -87 -26 -117 -50
-280 -61 -410 -5 -59 -5 -334 0 -375 2 -19 7 -60 11 -90 55 -485 298 -843 661
-973 155 -56 385 -69 572 -32 242 47 523 177 781 359 47 33 87 63 90 66 3 3
28 23 55 45 90 72 118 98 266 245 360 359 653 793 869 1285 80 184 192 516
214 635 2 14 7 32 10 40 10 26 56 302 64 380 11 117 7 508 -6 570 -7 30 -14
73 -17 95 -8 63 -59 233 -96 315 -96 217 -232 373 -415 476 -66 37 -168 77
-230 89 -22 5 -46 10 -54 12 -19 6 -306 13 -311 9z"/>
<path d="M13837 15104 c-221 -42 -413 -162 -550 -342 -40 -53 -107 -157 -107
-166 0 -3 -13 -33 -29 -68 -62 -137 -101 -292 -121 -488 -9 -79 -6 -443 3
-500 2 -14 7 -50 11 -80 27 -202 98 -492 175 -707 83 -232 222 -529 329 -707
23 -37 42 -70 42 -72 0 -22 239 -358 359 -504 91 -112 347 -373 446 -457 333
-280 707 -474 1003 -519 20 -3 53 -9 73 -13 52 -12 273 -6 348 8 504 97 811
579 812 1276 0 100 -8 253 -17 298 -2 10 -6 46 -9 80 -4 34 -11 81 -16 105 -5
23 -12 59 -15 80 -11 74 -84 340 -128 468 -266 775 -780 1495 -1375 1927 -215
155 -404 254 -651 337 -159 54 -426 74 -583 44z"/>
<path d="M4269 9546 c-2 -2 -29 -7 -59 -11 -82 -10 -231 -62 -309 -109 -287
-169 -459 -473 -519 -917 -4 -30 -7 -153 -7 -274 1 -195 5 -278 20 -365 3 -14
7 -41 10 -60 13 -84 30 -163 71 -330 2 -8 10 -40 19 -70 9 -30 18 -62 20 -70
10 -38 79 -233 106 -300 17 -41 35 -84 39 -95 30 -74 179 -370 229 -455 34
-56 61 -103 61 -105 0 -8 147 -225 209 -310 179 -243 447 -526 656 -691 28
-21 52 -42 55 -45 10 -12 226 -156 275 -184 187 -105 360 -179 495 -211 133
-32 225 -42 350 -39 131 3 151 5 235 26 214 53 411 198 537 395 72 112 151
311 177 444 6 30 13 66 15 79 21 96 29 463 14 616 -6 65 -31 227 -43 285 -3
14 -10 48 -16 77 -18 94 -96 355 -144 483 -147 394 -347 759 -599 1095 -33 44
-65 85 -71 91 -5 6 -23 29 -40 50 -99 128 -351 382 -485 489 -41 33 -77 62
-80 65 -8 9 -139 102 -189 134 -237 153 -490 257 -731 301 -42 8 -295 17 -301
11z"/>
<path d="M15459 9539 c-47 -7 -123 -23 -199 -43 -255 -67 -637 -285 -874 -497
-27 -24 -58 -52 -70 -62 -89 -78 -270 -268 -373 -392 -112 -136 -288 -385
-347 -490 -9 -16 -31 -52 -48 -80 -38 -61 -172 -324 -215 -420 -155 -349 -264
-743 -300 -1085 -10 -91 -11 -420 -1 -510 23 -237 104 -482 213 -644 146 -218
348 -352 605 -401 70 -13 294 -15 360 -2 14 3 41 8 60 11 508 96 1087 513
1539 1110 71 93 204 288 250 367 116 196 210 378 271 524 23 55 46 109 51 120
26 56 115 326 144 441 39 150 80 365 90 471 4 40 8 85 10 100 5 35 5 289 1
363 -4 52 -11 115 -21 170 -3 14 -7 41 -10 60 -3 19 -8 43 -11 52 -3 9 -7 25
-9 36 -2 10 -17 60 -34 110 -112 335 -328 564 -618 656 -44 13 -100 28 -124
32 -67 10 -277 12 -340 3z"/>
<path d="M9758 5915 c-2 -1 -48 -6 -103 -9 -55 -4 -109 -9 -120 -11 -11 -2
-42 -6 -70 -9 -85 -9 -137 -17 -210 -31 -38 -8 -83 -17 -100 -20 -40 -6 -61
-11 -115 -24 -25 -7 -54 -14 -64 -16 -48 -11 -203 -57 -221 -65 -11 -5 -31
-12 -45 -16 -59 -16 -263 -100 -363 -150 -566 -284 -886 -687 -888 -1119 -1
-110 17 -221 45 -290 8 -19 13 -35 10 -35 -2 0 16 -39 40 -87 187 -373 592
-677 1166 -875 123 -42 363 -106 470 -124 14 -3 48 -9 75 -14 28 -5 70 -12 95
-15 25 -3 56 -8 70 -10 308 -44 785 -49 1070 -9 47 6 97 13 145 19 22 3 74 12
115 20 41 8 86 17 100 19 14 2 54 12 90 21 36 8 72 17 80 19 379 92 777 281
1040 493 153 124 292 289 367 438 34 67 70 158 79 200 2 11 6 31 9 45 31 136
21 310 -25 451 -59 179 -147 317 -305 475 -226 227 -552 414 -945 542 -141 45
-403 112 -500 127 -19 3 -46 7 -60 10 -14 2 -45 7 -70 10 -25 3 -56 8 -70 10
-14 2 -56 7 -95 11 -38 3 -83 8 -100 11 -32 5 -592 13 -597 8z"/>
</g>
</svg>
